<mxfile host="app.diagrams.net" modified="2023-12-05T05:05:45.565Z" agent="Mozilla/5.0 (X11; Linux x86_64) AppleWebKit/537.36 (KHTML, like Gecko) Chrome/119.0.0.0 Safari/537.36" version="22.1.5" etag="BzlX51YZ0wjSRAFG3s9s" type="github">
  <diagram name="Page-1" id="oFJe3X5_jZIk173XnoUh">
    <mxGraphModel>
      <root>
        <mxCell id="0" />
        <mxCell id="1" parent="0" />
      </root>
    </mxGraphModel>
  </diagram>
</mxfile>
